<?xml version="1.0" encoding="UTF-8"?>
<svg id="Layer_1" data-name="Layer 1" xmlns="http://www.w3.org/2000/svg" viewBox="0 0 100 100">
  <defs>
    <style>
      .cls-1 {
        fill: #65d2ff;
      }

      .cls-2 {
        fill: #282828;
      }

      .cls-3 {
        fill: #c8c8c8;
      }
    </style>
  </defs>
  <path class="cls-2" d="M96.56,85.77c-5.26,16.08-13.53,13.31-24.69,14.19-16.13-.16-35.55.41-51.7-.3-6.71-.75-13.55-1.83-17.08-15.34C-.24,66.8-6.32,7.23,15.04,1.23c22.19-1.91,48.02-2.28,70.58.19,20.47,6.72,14.83,65.84,10.94,84.35Z"/>
  <g>
    <path class="cls-1" d="M35.19,69.12l-.35-4.16h-.15c-1.33,2.59-3.9,4.91-7.31,4.91-4.84,0-7.31-4.7-7.31-9.48,0-7.98,5.14-12.34,14.38-12.27v-.68c0-2.73-.54-7.64-5.44-7.64-2.22,0-4.55.95-6.23,2.45l-.99-3.95c1.98-1.77,4.85-2.93,7.86-2.93,7.31,0,9.09,6.88,9.09,13.5v12.34c0,2.86.1,5.66.4,7.91h-3.95ZM34.55,52.28c-4.74-.14-10.13,1.02-10.13,7.43,0,3.89,1.88,5.73,4.1,5.73,3.11,0,5.09-2.73,5.78-5.52.15-.61.25-1.3.25-1.91v-5.73Z"/>
    <path class="cls-1" d="M45.78,45.05c0-3.41-.05-6.2-.2-8.93h3.8l.2,5.32h.15c1.33-3.14,3.56-6.07,7.51-6.07,3.26,0,5.73,2.73,6.77,6.61h.1c.74-1.84,1.68-3.27,2.67-4.29,1.43-1.5,3.01-2.32,5.29-2.32,3.16,0,7.86,2.86,7.86,14.32v19.43h-4.25v-18.68c0-6.34-1.68-10.16-5.19-10.16-2.47,0-4.4,2.52-5.14,5.45-.2.82-.35,1.91-.35,3v20.38h-4.25v-19.77c0-5.25-1.68-9.07-4.99-9.07-2.72,0-4.7,3-5.39,6-.25.89-.35,1.91-.35,2.93v19.91h-4.25v-24.07Z"/>
  </g>
  <path class="cls-3" d="M2.76,47.64c4.2,0,4.79-2.92,4.79-5.54,0-2.09-.24-4.19-.47-6.28s-.47-4.12-.47-6.21c0-6.88,3.55-9.8,8.57-9.8h1.24v4.12h-1.06c-3.49,0-4.67,2.39-4.67,6.43,0,1.72.18,3.51.41,5.31.24,1.87.41,3.67.41,5.69.06,4.79-1.6,7.18-4.25,8.08v.15c2.66.82,4.32,3.37,4.25,8.15,0,2.02-.18,3.89-.41,5.69-.24,1.87-.41,3.59-.41,5.39,0,4.19,1.36,6.51,4.67,6.51h1.06v4.12h-1.24c-4.91,0-8.57-2.69-8.57-10.25,0-2.02.24-4.12.47-6.13s.47-4.04.47-6.06c0-2.32-.59-5.53-4.79-5.53v-3.82Z"/>
  <path class="cls-3" d="M97.24,51.61c-4.2,0-4.79,2.92-4.79,5.54,0,2.09.24,4.19.47,6.28s.47,4.12.47,6.21c0,6.88-3.55,9.8-8.57,9.8h-1.24v-4.12h1.06c3.49,0,4.67-2.39,4.67-6.43,0-1.72-.18-3.51-.41-5.31-.24-1.87-.41-3.67-.41-5.69-.06-4.79,1.6-7.18,4.25-8.08v-.15c-2.66-.82-4.32-3.37-4.25-8.15,0-2.02.18-3.89.41-5.69.24-1.87.41-3.59.41-5.39,0-4.19-1.36-6.51-4.67-6.51h-1.06v-4.12h1.24c4.91,0,8.57,2.69,8.57,10.25,0,2.02-.24,4.12-.47,6.13s-.47,4.04-.47,6.06c0,2.32.59,5.53,4.79,5.53v3.82Z"/>
</svg>